<?xml version="1.0" encoding="UTF-8"?>
<!DOCTYPE svg PUBLIC "-//W3C//DTD SVG 1.1//EN" "http://www.w3.org/Graphics/SVG/1.1/DTD/svg11.dtd">
<!-- Creator: CorelDRAW 2020 (64 Bit) -->
<svg xmlns="http://www.w3.org/2000/svg" xml:space="preserve" width="20cm" height="20cm" version="1.1" style="shape-rendering:geometricPrecision; text-rendering:geometricPrecision; image-rendering:optimizeQuality; fill-rule:evenodd; clip-rule:evenodd"
viewBox="0 0 20000 20000"
 xmlns:xlink="http://www.w3.org/1999/xlink"
 xmlns:xodm="http://www.corel.com/coreldraw/odm/2003">
 <defs>
  <style type="text/css">
   <![CDATA[
    .fil2 {fill:none}
    .fil0 {fill:#FEFEFE;fill-rule:nonzero}
    .fil1 {fill:#00C795;fill-rule:nonzero}
   ]]>
  </style>
   <clipPath id="id0">
    <path d="M84.71 15.1l19949.6 0 0 19949.6 -19949.6 0 0 -19949.6z"/>
   </clipPath>
 </defs>
 <g id="Camada_x0020_1">
  <metadata id="CorelCorpID_0Corel-Layer"/>
  <g>
  </g>
  <g style="clip-path:url(#id0)">
   <g>
    <path class="fil0" d="M1084.73 13935.55c-27.15,-27.15 -40.2,-59.16 -40.2,-95.96l0 -3267.92c0,-36.8 13.58,-69.27 40.2,-95.95 27.15,-27.09 59.16,-40.66 95.95,-40.66l1679.28 0c478.79,0 832.08,87.7 1059.4,263.12 227.79,175.48 341.18,441.99 341.18,799.21 0,144.87 -42.19,273.77 -126.5,386.69 -84.31,112.93 -176.88,194.85 -278.16,245.22 134.69,53.84 248.61,149.26 341.18,285.95 92.56,136.68 139.08,285.95 139.08,447.78 0,374.12 -121.18,653.28 -364.01,836.95 -242.75,183.73 -597.04,275.76 -1062.26,275.76l-1728.72 0c-37.26,0 -69.27,-13.04 -96.42,-40.19zm1649.19 -2170.18c67.35,0 118.72,-22.76 154.12,-68.35 35.4,-45.58 53.3,-98.35 53.3,-159.44 0,-60.56 -17.9,-114.39 -53.3,-161.84 -35.4,-47.05 -86.77,-70.8 -154.12,-70.8l-425.02 0 0 460.43 425.02 0zm45.59 1340.49c77.52,0 135.68,-25.22 174.48,-76.06 38.73,-50.44 58.16,-108.07 58.16,-172.09 0,-63.95 -21.36,-121.65 -63.55,-172.02 -42.12,-50.44 -98.82,-76.13 -169.63,-76.13l-470.07 0 0 495.83 470.61 0 0 0.47z"/>
    <path class="fil0" d="M4797.63 13935.55c-27.15,-27.15 -40.19,-59.16 -40.19,-95.96l0 -3267.92c0,-36.8 13.57,-69.27 40.19,-95.95 27.15,-27.09 59.16,-40.66 95.96,-40.66l1497.01 0c485.64,0 865.09,108.53 1137.92,326.14 273.37,217.6 409.52,518.58 409.52,902.88 0,219.07 -48.91,412.39 -146.86,579.15 -97.89,166.7 -231.11,304.31 -399.27,412.38l622.26 1153.43c10.18,20.37 14.97,38.8 14.97,55.77 0,30.48 -11.11,56.7 -32.94,78.46 -21.82,21.82 -47.97,33 -78.52,33l-1036.58 0c-60.62,0 -108.6,-14.57 -143.94,-43.12 -35.4,-28.61 -60.09,-59.62 -73.2,-93.56l-435.2 -965.84 -207.42 0 0 965.84c0,37.33 -13.58,69.27 -40.73,95.96 -27.08,27.15 -59.09,40.72 -95.96,40.72l-991.06 0c-37.33,-0.53 -69.27,-13.57 -95.96,-40.72zm1592.97 -2023.38c74.19,0 131.36,-24.23 172.08,-73.14 40.73,-48.98 60.56,-110.53 60.56,-184.66 0,-74.13 -19.37,-139.08 -58.16,-194.78 -38.73,-55.77 -96.89,-83.38 -174.48,-83.38l-369.26 0 0 535.96 369.26 0z"/>
    <path class="fil0" d="M8772.99 13677.75c-299.99,-232.64 -460.43,-571.43 -480.79,-1016.81 -3.39,-91.11 -4.86,-237.9 -4.86,-440 0,-205.5 1.47,-355.76 4.86,-450.25 10.18,-289.81 86.77,-539.42 230.25,-748.77 143.4,-208.89 339.71,-367.33 589.26,-475.4 249.61,-108.07 539.41,-161.91 869.95,-161.91 330.53,0 620.33,53.84 869.94,161.91 249.55,108.07 445.86,266.51 589.26,475.4 143.48,208.89 220.07,458.5 230.25,748.77 6.72,188.99 10.18,338.78 10.18,450.25 0,111.46 -3.46,257.79 -10.18,440 -20.36,444.92 -180.27,784.17 -480.79,1016.81 -300.45,232.58 -703.19,348.9 -1208.66,348.9 -505.48,0 -908.68,-116.32 -1208.67,-348.9zm1479.57 -738.59c65.88,-67.41 100.29,-170.16 103.75,-308.7 6.72,-195.31 10.11,-338.79 10.11,-429.89 0,-97.88 -3.39,-237.96 -10.11,-419.7 -3.46,-138.15 -38.8,-240.89 -106.14,-308.7 -67.41,-67.41 -156.59,-101.29 -268.05,-101.29 -111.46,0 -200.63,33.88 -267.98,101.29 -67.34,67.34 -102.74,170.09 -106.14,308.7 -3.39,91.1 -4.86,231.18 -4.86,419.7 0,188.99 1.47,331.93 4.86,429.89 3.4,138.08 37.8,241.29 103.68,308.7 65.95,67.35 156.05,101.28 270.44,101.28 114.39,0 204.56,-33.93 270.44,-101.28z"/>
    <path class="fil0" d="M12177.06 13935.55c-27.15,-27.15 -40.26,-59.16 -40.26,-95.96l0 -3267.92c0,-36.8 13.57,-69.27 40.26,-95.95 27.08,-27.09 59.09,-40.66 95.96,-40.66l1456.81 0c320.28,0 605.3,53.76 854.84,161.83 249.61,108.07 448.32,266.59 597.11,475.47 148.27,208.82 227.26,460.36 237.44,753.56 6.79,189.06 10.18,316.96 10.18,384.3 0,64.02 -3.39,187.06 -10.18,369.33 -20.36,465.22 -177.88,814.18 -473.01,1046.76 -295.13,232.64 -692.07,348.96 -1191.23,348.96l-1481.96 0c-36.87,0.47 -69.35,-12.57 -95.96,-39.72zm1552.77 -946.01c117.72,0 213.21,-34.41 285.88,-103.68 72.73,-69.34 111.99,-171.09 118.71,-305.84 6.86,-97.89 10.19,-224.4 10.19,-379.45 0,-158.51 -3.33,-283.55 -10.19,-374.18 -6.72,-134.69 -49.9,-235.97 -128.89,-303.32 -79.46,-67.41 -179.81,-101.34 -300.92,-101.34l-303.38 0 0 1567.81 328.6 0z"/>
    <path class="fil0" d="M17687.75 13935.55c-27.15,-27.15 -40.19,-59.16 -40.19,-95.96l0 -3267.92c0,-36.8 13.57,-69.27 40.19,-95.95 27.09,-27.09 59.16,-40.66 95.96,-40.66l1031.72 0c37.33,0 69.41,13.57 95.96,40.66 27.15,27.15 40.33,59.15 40.33,95.95l0 3267.45c0,37.27 -13.58,69.28 -40.33,95.96 -27.08,27.09 -58.96,40.66 -95.96,40.66l-1031.72 0c-36.8,0 -68.87,-13.04 -95.96,-40.19z"/>
    <path class="fil1" d="M19933.26 8975.85c-926.24,-170.63 -1852.76,-310.7 -2771.62,-424.1l0 -2598.6 -4419.88 0 0 2235.13c-6414.58,-281.09 -11692.77,489.51 -12553.93,624.2 -67.35,10.71 -112.93,74.2 -101.29,142.01l153.13 899.96c11.18,66.41 73.2,110.99 139.61,100.81 980.88,-153.65 7845.71,-1152.96 15492.25,-382.37l0 4266.23c0,37.33 13.57,69.28 40.66,95.96 27.15,27.15 59.16,40.73 95.96,40.73l1011.49 0c36.8,0 68.8,-13.58 95.95,-40.73 27.09,-27.15 40.2,-59.16 40.2,-95.96l0 -4120.36c851.51,107.6 1708.75,238.43 2565.73,396.41 66.34,12.11 130.22,-31.47 142.4,-97.89l168.16 -897.5c12.65,-66.87 -31.54,-131.36 -98.82,-143.93zm-5901.45 -841.34c0,-507.94 411.98,-919.86 919.86,-919.86 507.94,0 919.86,411.92 919.86,919.86l0 274.77c-619.41,-61.09 -1232.89,-110.47 -1839.19,-150.26l0 -124.51 -0.53 0z"/>
   </g>
  </g>
  <polygon class="fil2" points="84.71,15.1 20034.31,15.1 20034.31,19964.7 84.71,19964.7 "/>
 </g>
</svg>
